<?xml version="1.0" encoding="UTF-8"?>
<svg width="20px" height="20px" viewBox="0 0 20 20" version="1.1" xmlns="http://www.w3.org/2000/svg" xmlns:xlink="http://www.w3.org/1999/xlink">
    <!-- Generator: Sketch 48.1 (47250) - http://www.bohemiancoding.com/sketch -->
    <title>instagram-blk</title>
    <desc>Created with Sketch.</desc>
    <defs></defs>
    <g id="Page-1" stroke="none" stroke-width="1" fill="none" fill-rule="evenodd">
        <g id="Group" fill="#000000" fill-rule="nonzero">
            <g id="instagram-blk">
                <path d="M10,0.461956522 C7.40961592,0.461956522 7.08480926,0.472868369 6.06749433,0.519358705 C5.052228,0.565723614 4.35888354,0.726934692 3.75224895,0.962689169 C3.12500297,1.20642895 2.59307934,1.53257201 2.06282802,2.062821 C1.5325767,2.59307 1.20643221,3.12503312 0.962733176,3.75223451 C0.726852238,4.35895006 0.565640449,5.05229148 0.519358956,6.06751158 C0.472910229,7.08482205 0.461956522,7.40958546 0.461956522,9.99995819 C0.461956522,12.5904145 0.472910229,12.9151779 0.519358956,13.9324884 C0.565640449,14.9477085 0.726852238,15.6410499 0.962733176,16.2477655 C1.20643221,16.8749669 1.5325767,17.40693 2.06282802,17.937179 C2.59307934,18.467428 3.12500297,18.7935711 3.75224895,19.0373108 C4.35888354,19.2730653 5.052228,19.4342764 6.06749433,19.4806413 C7.08480926,19.527048 7.40961592,19.5380435 10,19.5380435 C12.5903841,19.5380435 12.9152325,19.527048 13.9325475,19.4806413 C14.947772,19.4342764 15.6411165,19.2730653 16.2477928,19.0373108 C16.8750388,18.7935711 17.4069207,18.467428 17.937172,17.937179 C18.4674233,17.40693 18.7935678,16.8749669 19.0373086,16.2477655 C19.2731477,15.6410499 19.4343595,14.9477085 19.4806828,13.9324884 C19.5271316,12.9151779 19.5380435,12.5904145 19.5380435,9.99995819 C19.5380435,7.40958546 19.5271316,7.08482205 19.4806828,6.06751158 C19.4343595,5.05229148 19.2731477,4.35895006 19.0373086,3.75223451 C18.7935678,3.12503312 18.4674233,2.59307 17.937172,2.062821 C17.4069207,1.53257201 16.8750388,1.20642895 16.2477928,0.962689169 C15.6411165,0.726934692 14.947772,0.565723614 13.9325475,0.519358705 C12.9152325,0.472868369 12.5903841,0.461956522 10,0.461956522 M10,2.18051011 C12.5467783,2.18051011 12.8483815,2.19020953 13.8541992,2.23607274 C14.7841353,2.27850772 15.2891764,2.43394931 15.6252712,2.56451524 C16.0705268,2.73755794 16.3882679,2.94425596 16.7219796,3.27800804 C17.0558168,3.61180194 17.2625157,3.9294998 17.4354755,4.37471162 C17.566042,4.71080497 17.7214843,5.21588562 17.7639195,6.1457759 C17.8097829,7.1515892 17.8195241,7.45319105 17.8195241,9.99995819 C17.8195241,12.5468089 17.8097829,12.8484108 17.7639195,13.8541405 C17.7214843,14.7841144 17.566042,15.2891951 17.4354755,15.6252884 C17.2625157,16.0704584 17.0558168,16.388198 16.7219796,16.721992 C16.3882679,17.055744 16.0705268,17.2624421 15.6252712,17.435443 C15.2891764,17.5660507 14.7841353,17.7214923 13.8541992,17.7638436 C12.8485487,17.8097905 12.5469874,17.8194481 10,17.8194481 C7.45301264,17.8194481 7.1514513,17.8097905 6.14580078,17.7638436 C5.21590647,17.7214923 4.7108236,17.5660507 4.37472878,17.435443 C3.92951501,17.2624421 3.61177392,17.055744 3.27802037,16.721992 C2.94430865,16.388198 2.73760972,16.0704584 2.56456626,15.6252884 C2.43395795,15.2891951 2.27855748,14.7841144 2.23608052,13.8541405 C2.19025891,12.8484108 2.18051764,12.5468089 2.18051764,9.99995819 C2.18051764,7.45319105 2.19025891,7.1515892 2.23608052,6.1457759 C2.27855748,5.21588562 2.43395795,4.71080497 2.56456626,4.37471162 C2.73760972,3.9294998 2.94430865,3.61180194 3.27802037,3.27800804 C3.61177392,2.94425596 3.92951501,2.73755794 4.37472878,2.56451524 C4.7108236,2.43394931 5.21590647,2.27850772 6.14580078,2.23607274 C7.15161853,2.19020953 7.4532217,2.18051011 10,2.18051011" id="Fill-1"></path>
                <path d="M9.63315217,12.7288387 C7.92345757,12.7288387 6.53743213,11.3428598 6.53743213,9.63313183 C6.53743213,7.92344448 7.92345757,6.53746568 9.63315217,6.53746568 C11.3428875,6.53746568 12.7288723,7.92344448 12.7288723,9.63313183 C12.7288723,11.3428598 11.3428875,12.7288387 9.63315217,12.7288387 M9.63315217,4.86413043 C6.99930492,4.86413043 4.86413043,6.9993365 4.86413043,9.63313183 C4.86413043,12.2670493 6.99930492,14.4021739 9.63315217,14.4021739 C12.2669995,14.4021739 14.4021739,12.2670493 14.4021739,9.63313183 C14.4021739,6.9993365 12.2669995,4.86413043 9.63315217,4.86413043" id="Fill-4"></path>
                <path d="M15.8695652,4.49728261 C15.8695652,5.10505982 15.3768391,5.59782609 14.7690217,5.59782609 C14.1612445,5.59782609 13.6684783,5.10505982 13.6684783,4.49728261 C13.6684783,3.88946522 14.1612445,3.39673913 14.7690217,3.39673913 C15.3768391,3.39673913 15.8695652,3.88946522 15.8695652,4.49728261" id="Fill-5"></path>
            </g>
        </g>
    </g>
</svg>