<?xml version="1.0" encoding="UTF-8"?>
<svg width="15px" height="15px" viewBox="0 0 15 15" version="1.1" xmlns="http://www.w3.org/2000/svg" xmlns:xlink="http://www.w3.org/1999/xlink">
    <!-- Generator: Sketch 48.2 (47327) - http://www.bohemiancoding.com/sketch -->
    <title>Rectangle</title>
    <desc>Created with Sketch.</desc>
    <defs>
        <rect id="path-1" x="3" y="10" width="1" height="1"></rect>
        <rect id="path-2" x="2" y="10" width="1" height="1"></rect>
        <rect id="path-3" x="4" y="10" width="1" height="1"></rect>
        <rect id="path-4" x="11" y="4" width="1" height="1"></rect>
        <rect id="path-5" x="10" y="4" width="1" height="1"></rect>
        <rect id="path-6" x="12" y="4" width="1" height="1"></rect>
    </defs>
    <g id="Page-1" stroke="none" stroke-width="1" fill="none" fill-rule="evenodd">
        <g id="icons8-refresh" transform="translate(1.000000, 1.000000)" fill="#000000" fill-rule="nonzero">
            <path d="M1.60784314,9.76934524 L2.45900504,9.41341643 L1.60784314,8.57365401 L1.60784314,9.76934524 Z M1.60784314,8.57365401 L1.60784314,2.78571429 C1.60784314,0.977359774 3.10525757,-0.5 4.93137255,-0.5 L8.88235294,-0.5 L8.88235294,1.11904762 L4.93137255,1.11904762 C3.9964582,1.11904762 3.23529412,1.87001754 3.23529412,2.78571429 L3.23529412,8.57365401 L4.39215686,7.43228497 L5.55505958,8.5796131 L5.19429916,8.9355419 L2.99022963,11.1099194 L2.42156863,11.6465712 L2.07839782,11.322717 L1.84491653,11.1022086 L-0.711922326,8.5796131 L0.450980392,7.43228497 L1.60784314,8.57365401 Z M2.38413221,9.41341643 L3.23529412,9.76934524 L3.23529412,8.57365401 L2.38413221,9.41341643 Z M8.00140056,0.5 L8.19187675,0.30952381 L8.00140056,0.119047619 L7.88235294,0.119047619 L7.88235294,0.5 L8.00140056,0.5 Z M2.23529412,10.7616923 L2.33466801,10.8669935 L2.6856044,10.5207571 L2.53924924,10.3826401 L2.23529412,10.0827318 L2.23529412,10.7616923 Z M4.49197535,8.73857864 L4.49197535,8.49060143 L4.2214349,8.49060143 L4.13121493,8.5796131 L4.39215686,8.83706027 L4.49197535,8.73857864 Z M2.29589692,10.390351 L2.15756482,10.5207887 L2.50846924,10.8669935 L2.60784314,10.7616923 L2.60784314,10.0825826 L2.29589692,10.390351 Z M0.621680647,8.49060143 L0.351161905,8.49060143 L0.351161905,8.73857864 L0.450980392,8.83706027 L0.711907852,8.57962738 L0.621680647,8.49060143 Z M10.6158678,3.58658357 L9.76470588,3.23065476 L9.76470588,4.42634599 L10.6158678,3.58658357 Z M8.60784314,5.56771503 L7.44494042,4.4203869 L7.80570084,4.0644581 L10.0097704,1.89008058 L10.5784314,1.35342884 L10.9216022,1.67728297 L11.1550835,1.89779143 L13.7119223,4.4203869 L12.5490196,5.56771503 L11.3921569,4.42634599 L11.3921569,10.2142857 C11.3921569,12.0226405 9.89474275,13.5 8.06862745,13.5 L4.11764706,13.5 L4.11764706,11.8809524 L8.06862745,11.8809524 C9.0035418,11.8809524 9.76470588,11.1299825 9.76470588,10.2142857 L9.76470588,4.42634599 L8.60784314,5.56771503 Z M11.3921569,3.23065476 L10.540995,3.58658357 L11.3921569,4.42634599 L11.3921569,3.23065476 Z M10.665332,2.13300653 L10.3143956,2.47924288 L10.4607508,2.61735989 L10.7647059,2.91726825 L10.7647059,2.2383077 L10.665332,2.13300653 Z M10.3921569,2.2383077 L10.3921569,2.91741741 L10.7041031,2.60964905 L10.8424352,2.47921134 L10.4915308,2.13300653 L10.3921569,2.2383077 Z M12.3783194,4.50939857 L12.6488381,4.50939857 L12.6488381,4.26142136 L12.5490196,4.16293973 L12.2880921,4.42037262 L12.3783194,4.50939857 Z M4.99859944,12.5 L4.80812325,12.6904762 L4.99859944,12.8809524 L5.11764706,12.8809524 L5.11764706,12.5 L4.99859944,12.5 Z M8.50802465,4.26142136 L8.50802465,4.50939857 L8.7785651,4.50939857 L8.86878507,4.4203869 L8.60784314,4.16293973 L8.50802465,4.26142136 Z" id="Shape"></path>
        </g>
        <g id="Rectangle-2">
            <use fill="#D8D8D8" fill-rule="evenodd" xlink:href="#path-1"></use>
            <rect stroke="#000000" stroke-width="1" x="3.5" y="10.5" width="1" height="1"></rect>
        </g>
        <g id="Rectangle-2-Copy-2">
            <use fill="#D8D8D8" fill-rule="evenodd" xlink:href="#path-2"></use>
            <rect stroke="#000000" stroke-width="1" x="2.5" y="10.5" width="1" height="1"></rect>
        </g>
        <g id="Rectangle-2-Copy-3">
            <use fill="#D8D8D8" fill-rule="evenodd" xlink:href="#path-3"></use>
            <rect stroke="#000000" stroke-width="1" x="4.5" y="10.5" width="1" height="1"></rect>
        </g>
        <g id="Rectangle-2-Copy">
            <use fill="#D8D8D8" fill-rule="evenodd" xlink:href="#path-4"></use>
            <rect stroke="#000000" stroke-width="1" x="11.5" y="4.5" width="1" height="1"></rect>
        </g>
        <g id="Rectangle-2-Copy-4">
            <use fill="#D8D8D8" fill-rule="evenodd" xlink:href="#path-5"></use>
            <rect stroke="#000000" stroke-width="1" x="10.5" y="4.5" width="1" height="1"></rect>
        </g>
        <g id="Rectangle-2-Copy-5">
            <use fill="#D8D8D8" fill-rule="evenodd" xlink:href="#path-6"></use>
            <rect stroke="#000000" stroke-width="1" x="12.5" y="4.5" width="1" height="1"></rect>
        </g>
    </g>
</svg>