<?xml version="1.0" encoding="UTF-8"?>
<svg width="17px" height="15px" viewBox="0 0 17 15" version="1.1" xmlns="http://www.w3.org/2000/svg" xmlns:xlink="http://www.w3.org/1999/xlink">
    <!-- Generator: Sketch 48.2 (47327) - http://www.bohemiancoding.com/sketch -->
    <title>Group 2</title>
    <desc>Created with Sketch.</desc>
    <defs></defs>
    <g id="Page-1" stroke="none" stroke-width="1" fill="none" fill-rule="evenodd">
        <g id="Group-2" fill="#000000">
            <g id="Group">
                <path d="M4.14705882,10.84375 L2.55882353,10.84375 L2.55882353,3.36379845 L2.56283382,3.32156129 C2.6067922,2.85858362 2.65168831,2.54851987 2.71285533,2.34127783 C2.83858673,1.91528305 3.0107336,1.58564221 3.23920478,1.29418864 C3.3150184,1.19747557 3.3527554,1.15487397 3.48962774,1.00539069 C3.79440489,0.672532446 4.14698812,0.414979615 4.61442082,0.236975133 C4.82291715,0.157577003 5.13203907,0.0866259836 5.57227934,0.0108564927 L5.63535837,0 L9.88235294,0 L9.88235294,1.6875 L5.76401532,1.6875 C5.44891507,1.74324292 5.23591162,1.79291716 5.15028507,1.82552487 C4.92810079,1.91013554 4.77393456,2.02274995 4.62801932,2.18210931 C4.52233431,2.29753176 4.49905793,2.32380865 4.45958313,2.37416542 C4.3614227,2.49938563 4.29074281,2.63472923 4.22832115,2.84622217 C4.21061387,2.90621678 4.17900667,3.12200256 4.14705882,3.4492825 L4.14705882,10.84375 Z" id="Path" fill-rule="nonzero"></path>
                <path d="M8.55882353,14.96875 L6.97058824,14.96875 L6.97058824,7.48879845 L6.97459853,7.44656129 C7.0185569,6.98358362 7.06345301,6.67351987 7.12462003,6.46627783 C7.25035144,6.04028305 7.42249831,5.71064221 7.65096949,5.41918864 C7.72678311,5.32247557 7.76452011,5.27987397 7.90139245,5.13039069 C8.20616959,4.79753245 8.55875282,4.53997961 9.02618552,4.36197513 C9.23468186,4.282577 9.54380378,4.21162598 9.98404405,4.13585649 L10.0471231,4.125 L14.2941176,4.125 L14.2941176,5.8125 L10.17578,5.8125 C9.86067977,5.86824292 9.64767633,5.91791716 9.56204977,5.95052487 C9.3398655,6.03513554 9.18569926,6.14774995 9.03978402,6.30710931 C8.93409902,6.42253176 8.91082264,6.44880865 8.87134784,6.49916542 C8.7731874,6.62438563 8.70250752,6.75972923 8.64008585,6.97122217 C8.62237858,7.03121678 8.59077138,7.24700256 8.55882353,7.5742825 L8.55882353,14.96875 Z" id="Path" fill-rule="nonzero" transform="translate(10.632353, 9.546875) rotate(-180.000000) translate(-10.632353, -9.546875) "></path>
                <polygon id="Path-2" points="0 8.34375 6.88235294 8.34375 3.44117647 12.84375"></polygon>
                <polygon id="Path-2" transform="translate(13.558824, 4.093750) rotate(-180.000000) translate(-13.558824, -4.093750) " points="10.1176471 1.84375 17 1.84375 13.5588235 6.34375"></polygon>
            </g>
        </g>
    </g>
</svg>