<?xml version="1.0" encoding="UTF-8"?>
<svg width="150px" height="131px" viewBox="0 0 150 131" version="1.1" xmlns="http://www.w3.org/2000/svg" xmlns:xlink="http://www.w3.org/1999/xlink">
    <!-- Generator: Sketch 48.2 (47327) - http://www.bohemiancoding.com/sketch -->
    <title>s-r-logo-blk</title>
    <desc>Created with Sketch.</desc>
    <defs></defs>
    <g id="Page-1" stroke="none" stroke-width="1" fill="none" fill-rule="evenodd">
        <g id="s-r-logo-blk" fill-rule="nonzero">
            <g id="Group-2" transform="translate(24.803150, 0.000000)">
                <path d="M52.2607654,92.1250009 C75.6092241,91.967833 94.488189,72.9917753 94.488189,49.6062992 C94.488189,26.1233256 75.4514776,7.08661417 51.9685039,7.08661417 C28.4855303,7.08661417 9.4488189,26.1233256 9.4488189,49.6062992 C9.4488189,63.4263354 16.0421382,75.7064194 26.2548045,83.4725789 C15.3431711,75.4053458 8.26771654,62.4462762 8.26771654,47.8346457 C8.26771654,23.3732148 28.0976243,3.54330709 52.5590551,3.54330709 C77.0204859,3.54330709 96.8503937,23.3732148 96.8503937,47.8346457 C96.8503937,72.2960765 77.0204859,92.1259843 52.5590551,92.1259843 C52.4595482,92.1259843 52.360118,92.1256561 52.2607654,92.1250009 Z" id="Combined-Shape" fill="#FFFFFF"></path>
                <path d="M19.3608462,23.4012674 C14.612209,29.9286184 11.8110236,37.9639548 11.8110236,46.6535433 C11.8110236,68.5057548 29.5257412,86.2204724 51.3779528,86.2204724 C73.2301643,86.2204724 90.9448819,68.5057548 90.9448819,46.6535433 C90.9448819,24.9956574 73.5438275,7.40200547 51.9599386,7.09080729 C52.1593107,7.08801497 52.3590194,7.08661417 52.5590551,7.08661417 C75.7158763,7.08661417 94.488189,25.8589269 94.488189,49.015748 C94.488189,72.1725692 75.7158763,90.9448819 52.5590551,90.9448819 C29.4022339,90.9448819 10.6299213,72.1725692 10.6299213,49.015748 C10.6299213,39.3703297 13.8868033,30.4855969 19.3608367,23.4012804 L19.3608462,23.4012674 Z" id="Combined-Shape" fill="#FFFFFF"></path>
                <path d="M50.1968504,100.393701 C22.4738954,100.393701 0,77.9198054 0,50.1968504 C0,22.4738954 22.4738954,0 50.1968504,0 C77.9198054,0 100.393701,22.4738954 100.393701,50.1968504 C100.393701,77.9198054 77.9198054,100.393701 50.1968504,100.393701 Z M52.5590551,94.488189 C78.3250956,94.488189 99.2125984,73.6006861 99.2125984,47.8346457 C99.2125984,22.0686052 78.3250956,1.18110236 52.5590551,1.18110236 C26.7930146,1.18110236 5.90551181,22.0686052 5.90551181,47.8346457 C5.90551181,73.6006861 26.7930146,94.488189 52.5590551,94.488189 Z" id="Combined-Shape" fill="#FFFFFF"></path>
                <g id="Group" transform="translate(24.803150, 31.889764)">
                    <path d="M0,26.928291 L2.64335056,22.5726468 C5.47028127,24.5084983 8.35223883,25.4764096 11.2893097,25.4764096 C14.9055782,25.4764096 16.7045072,24.3897922 16.6861505,22.2165249 C16.6861505,21.5042777 16.3786805,20.8605253 15.7637313,20.2852487 C15.148782,19.709972 14.4374708,19.2260164 13.6297763,18.8333673 C12.8220819,18.4407182 11.555489,17.9248032 9.82995991,17.2856069 C6.56246857,16.0072143 4.295451,14.7151442 3.02883919,13.4093575 C1.76222738,12.1035709 1.12893097,10.3092825 1.12893097,8.02643871 C1.12893097,5.45139089 2.05134096,3.46991218 3.89618859,2.08194314 C5.74103623,0.693974109 8.18702887,0 11.2342399,0 C14.9239351,0 18.2648031,1.08661736 21.2569441,3.25988466 L18.7237331,7.69771084 C16.282293,6.0175378 13.7307509,5.17746387 11.0690305,5.17746387 C8.37059662,5.17746387 7.01222172,6.07232523 6.99386503,7.86207478 C6.99386503,8.64737306 7.37017159,9.3504784 8.122796,9.97141192 C8.87542041,10.5923454 10.3255774,11.3137133 12.4733105,12.135537 C16.1630057,13.5600315 18.7466715,14.9160204 20.2243853,16.2035444 C21.7020991,17.4910683 22.4409449,19.4223252 22.4409449,21.997373 C22.4409449,25.0289896 21.3992181,27.2387492 19.3157335,28.6267182 C17.2322489,30.0146874 14.5751575,30.7086614 11.3443795,30.7086614 C7.19576691,30.6903986 3.41434488,29.4302878 0,26.928291 Z" id="s" fill="#FFFFFF"></path>
                    <path d="M38.976378,30.7086614 L38.976378,0.643259757 L44.8264389,0.643259757 L44.8264389,3.49597694 C46.416037,1.16531399 48.6802559,0 51.6191639,0 C53.7447891,0 55.4360219,0.419513037 56.6929134,1.2585517 L55.1402906,6.88008261 C53.8094643,6.15291578 52.321549,5.7893378 50.6765,5.7893378 C48.8281302,5.7893378 47.3910443,6.4465749 46.365199,7.7610688 C45.3393539,9.0755627 44.8264389,11.0006614 44.8264389,13.5364227 L44.8264389,30.7086614 L38.976378,30.7086614 Z" id="r" fill="#939496"></path>
                    <polygon id="+" fill="#EA3235" points="22.6220472 16.8027413 22.6220472 13.9059201 28.1967548 13.9059201 28.1967548 8.26771654 31.220568 8.26771654 31.220568 13.9059201 36.7952756 13.9059201 36.7952756 16.8027413 31.220568 16.8027413 31.220568 22.4409449 28.1967548 22.4409449 28.1967548 16.8027413"></polygon>
                </g>
            </g>
            <path d="M0,124.169153 L1.16264764,122.243518 C2.40604091,123.09936 3.67363711,123.527275 4.96547428,123.527275 C6.5560488,123.527275 7.3472872,123.04688 7.33921322,122.086076 C7.33921322,121.771191 7.20397604,121.486587 6.93349763,121.232257 C6.66301923,120.977926 6.35015711,120.763969 5.99490188,120.590379 C5.63964666,120.416787 5.08255024,120.188701 4.3235959,119.906112 C2.88642705,119.340933 1.88930519,118.769707 1.33220042,118.192417 C0.77509564,117.615128 0.496547428,116.821871 0.496547428,115.812623 C0.496547428,114.674192 0.902258954,113.798178 1.71369417,113.184555 C2.5251294,112.570932 3.6009714,112.264126 4.94125246,112.264126 C6.56412291,112.264126 8.03356564,112.74452 9.34962475,113.705324 L8.23542077,115.667292 C7.16158113,114.924486 6.03931442,114.553088 4.86858698,114.553088 C3.68171159,114.553088 3.08424586,114.948707 3.07617188,115.739958 C3.07617188,116.087139 3.24168602,116.397982 3.5727193,116.672498 C3.90375257,116.947013 4.54158761,117.265931 5.48624354,117.629259 C7.10911398,118.25903 8.24550994,118.858515 8.89546552,119.427731 C9.54542109,119.996947 9.870394,120.850757 9.870394,121.989189 C9.870394,123.32947 9.41220239,124.306407 8.49580539,124.92003 C7.57940841,125.533652 6.410717,125.840459 4.98969612,125.840459 C3.16497612,125.832385 1.5017607,125.275289 0,124.169153 Z M13.2614496,125.561908 L13.2614496,108.824626 L15.8168523,107.480315 L15.8168523,125.561908 L13.2614496,125.561908 Z M19.0746878,121.444198 C19.0746878,120.055473 19.5510456,119.005871 20.5037756,118.29536 C21.4565054,117.58485 22.707954,117.2296 24.2581585,117.2296 C25.445034,117.2296 26.4138973,117.395114 27.1647776,117.726148 L27.1647776,116.757274 C27.1647776,116.046764 26.9548572,115.501778 26.5350102,115.122301 C26.1151631,114.742824 25.5055865,114.553088 24.7062624,114.553088 C23.4144252,114.553088 22.2840846,114.823562 21.3152067,115.364519 L20.3221119,113.438884 C21.5816531,112.663782 23.0672435,112.272199 24.7789278,112.264126 C26.2806885,112.264126 27.471583,112.633505 28.351647,113.372274 C29.2317111,114.111043 29.6717366,115.198996 29.6717366,116.636165 L29.6717366,125.561908 L27.1647776,125.561908 L27.1647776,124.278151 C26.1232339,125.319694 24.9323394,125.840459 23.5920583,125.840459 C22.3809609,125.840459 21.3253036,125.475117 20.4250546,124.744421 C19.5248055,124.013726 19.0746878,122.913663 19.0746878,121.444198 Z M21.5089813,121.371531 C21.5089813,122.033598 21.7209202,122.5584 22.1448043,122.94595 C22.5686883,123.333502 23.1923941,123.527275 24.0159403,123.527275 C24.6618588,123.527275 25.2653799,123.36176 25.8265218,123.030728 C26.3876635,122.699694 26.8337444,122.312148 27.1647776,121.86808 L27.1647776,120.002999 C26.4058233,119.623521 25.4127384,119.433785 24.1854931,119.433785 C23.3619469,119.433785 22.7099825,119.607374 22.2295806,119.954555 C21.7491787,120.301736 21.5089813,120.774058 21.5089813,121.371531 Z M32.2755829,112.542677 L34.9520946,112.542677 L37.2773898,119.603339 C37.7537549,121.024359 38.0767093,122.094146 38.2462629,122.81273 C38.3915946,122.118369 38.6903275,121.048581 39.1424705,119.603339 L41.3708785,112.542677 L44.071612,112.542677 L39.493687,125.561908 L36.9382844,125.561908 L32.2755829,112.542677 Z M46.5301273,109.212176 C46.5301273,108.751959 46.6916046,108.360376 47.0145639,108.037417 C47.3375231,107.714458 47.7291054,107.55298 48.1893224,107.55298 C48.6333914,107.55298 49.0189183,107.714458 49.3459146,108.037417 C49.6729109,108.360376 49.8364065,108.751959 49.8364065,109.212176 C49.8364065,109.656244 49.6749293,110.041771 49.3519701,110.368768 C49.0290107,110.695764 48.6414654,110.85926 48.1893224,110.85926 C47.7291054,110.85926 47.3375231,110.695764 47.0145639,110.368768 C46.6916046,110.041771 46.5301273,109.656244 46.5301273,109.212176 Z M46.9055656,125.561908 L46.9055656,112.542677 L49.4609682,112.542677 L49.4609682,125.561908 L46.9055656,125.561908 Z M53.3485713,125.561908 L53.3485713,112.542677 L55.903974,112.542677 L55.903974,113.77799 C56.2188592,113.317773 56.6730139,112.950412 57.2664516,112.675897 C57.8598893,112.401381 58.4957059,112.264126 59.1739204,112.264126 C60.6918291,112.264126 61.8443727,112.756631 62.6315861,113.741657 C63.4187993,114.726683 63.8124,116.179978 63.8124,118.101586 L63.8124,125.561908 L61.2569974,125.561908 L61.2569974,118.198473 C61.2569974,116.922784 61.0289108,116.008419 60.5727308,115.455351 C60.1165508,114.902283 59.4524758,114.625754 58.5804856,114.625754 C57.7246435,114.625754 57.0646054,114.914394 56.6003515,115.491684 C56.1360974,116.068974 55.903974,116.886452 55.903974,117.944144 L55.903974,125.561908 L53.3485713,125.561908 Z" id="slavinraphael" fill="#FFFFFF"></path>
            <path d="M67.3228346,125.561908 L67.3228346,112.542677 L69.8782372,112.542677 L69.8782372,113.77799 C70.5725998,112.768742 71.5616478,112.264126 72.8454109,112.264126 C73.7739189,112.264126 74.5126772,112.445787 75.061708,112.809117 L74.3834968,115.24341 C73.8021702,114.928525 73.1522243,114.771085 72.4336398,114.771085 C71.6262417,114.771085 70.9984989,115.055688 70.5503929,115.624904 C70.1022869,116.19412 69.8782372,117.027745 69.8782372,118.125808 L69.8782372,125.561908 L67.3228346,125.561908 Z M77.0600086,121.444198 C77.0600086,120.055473 77.5363664,119.005871 78.4890964,118.29536 C79.4418262,117.58485 80.6932747,117.2296 82.2434793,117.2296 C83.4303547,117.2296 84.399218,117.395114 85.1500984,117.726148 L85.1500984,116.757274 C85.1500984,116.046764 84.940178,115.501778 84.520331,115.122301 C84.1004838,114.742824 83.4909073,114.553088 82.6915831,114.553088 C81.399746,114.553088 80.2694054,114.823562 79.3005275,115.364519 L78.3074327,113.438884 C79.5669739,112.663782 81.0525644,112.272199 82.7642486,112.264126 C84.2660093,112.264126 85.4569038,112.633505 86.3369679,113.372274 C87.2170319,114.111043 87.6570574,115.198996 87.6570574,116.636165 L87.6570574,125.561908 L85.1500984,125.561908 L85.1500984,124.278151 C84.1085548,125.319694 82.9176602,125.840459 81.5773792,125.840459 C80.3662818,125.840459 79.3106244,125.475117 78.4103754,124.744421 C77.5101263,124.013726 77.0600086,122.913663 77.0600086,121.444198 Z M79.4943021,121.371531 C79.4943021,122.033598 79.7062409,122.5584 80.1301251,122.94595 C80.5540091,123.333502 81.1777149,123.527275 82.0012611,123.527275 C82.6471796,123.527275 83.2507007,123.36176 83.8118426,123.030728 C84.3729843,122.699694 84.8190652,122.312148 85.1500984,121.86808 L85.1500984,120.002999 C84.3911441,119.623521 83.3980592,119.433785 82.1708139,119.433785 C81.3472677,119.433785 80.6953033,119.607374 80.2149014,119.954555 C79.7344995,120.301736 79.4943021,120.774058 79.4943021,121.371531 Z M91.326664,130.345719 L91.326664,112.542677 L93.8578448,112.542677 L93.8578448,113.77799 C94.9478324,112.768742 96.078173,112.264126 97.2489004,112.264126 C98.7506611,112.264126 99.9617402,112.839388 100.882174,113.989931 C101.802608,115.140473 102.262818,116.898556 102.262818,119.264233 C102.262818,121.379616 101.770313,123.004481 100.785287,124.138876 C99.8002611,125.27327 98.5811081,125.840459 97.1277913,125.840459 C96.4980207,125.840459 95.8904626,125.699166 95.3050989,125.416577 C94.7197351,125.133987 94.237322,124.778738 93.8578448,124.350816 L93.8578448,129.03774 L91.326664,130.345719 Z M93.8215121,121.771192 C94.1525453,122.215261 94.5966077,122.61088 95.1537125,122.958061 C95.7108172,123.305243 96.2840614,123.478831 96.873462,123.478831 C98.7547,123.478831 99.6993417,122.098201 99.7074157,119.336898 C99.7074157,116.19612 98.7304785,114.625754 96.7765748,114.625754 C95.6865872,114.625754 94.7015761,115.178813 93.8215121,116.284949 L93.8215121,121.771192 Z M105.460099,125.561908 L105.460099,108.824626 L108.015502,107.480315 L108.015502,113.77799 C108.330387,113.317773 108.784542,112.950412 109.37798,112.675897 C109.971417,112.401381 110.607234,112.264126 111.285448,112.264126 C112.803357,112.264126 113.955901,112.756631 114.743114,113.741657 C115.530327,114.726683 115.923928,116.179978 115.923928,118.101586 L115.923928,125.561908 L113.368526,125.561908 L113.368526,118.198473 C113.368526,116.922784 113.140439,116.008419 112.684259,115.455351 C112.228079,114.902283 111.564004,114.625754 110.692014,114.625754 C109.836172,114.625754 109.176133,114.914394 108.711879,115.491684 C108.247625,116.068974 108.015502,116.886452 108.015502,117.944144 L108.015502,125.561908 L105.460099,125.561908 Z M118.963767,121.444198 C118.963767,120.055473 119.440126,119.005871 120.392855,118.29536 C121.345585,117.58485 122.597034,117.2296 124.147238,117.2296 C125.334113,117.2296 126.302976,117.395114 127.053857,117.726148 L127.053857,116.757274 C127.053857,116.046764 126.843937,115.501778 126.424089,115.122301 C126.004243,114.742824 125.394666,114.553088 124.595342,114.553088 C123.303504,114.553088 122.173165,114.823562 121.204286,115.364519 L120.211192,113.438884 C121.470732,112.663782 122.956323,112.272199 124.668007,112.264126 C126.169768,112.264126 127.360663,112.633505 128.240726,113.372274 C129.12079,114.111043 129.560816,115.198996 129.560816,116.636165 L129.560816,125.561908 L127.053857,125.561908 L127.053857,124.278151 C126.012313,125.319694 124.821419,125.840459 123.481137,125.840459 C122.270041,125.840459 121.214383,125.475117 120.314134,124.744421 C119.413885,124.013726 118.963767,122.913663 118.963767,121.444198 Z M121.39806,121.371531 C121.39806,122.033598 121.61,122.5584 122.033883,122.94595 C122.457768,123.333502 123.081474,123.527275 123.90502,123.527275 C124.550939,123.527275 125.154459,123.36176 125.715601,123.030728 C126.276743,122.699694 126.722824,122.312148 127.053857,121.86808 L127.053857,120.002999 C126.294902,119.623521 125.301817,119.433785 124.074573,119.433785 C123.251027,119.433785 122.599062,119.607374 122.11866,119.954555 C121.638259,120.301736 121.39806,120.774058 121.39806,121.371531 Z M132.600656,119.058347 C132.600656,116.89452 133.121419,115.221213 134.162963,114.038374 C135.204507,112.855536 136.585137,112.264126 138.304896,112.264126 C140.073097,112.264126 141.429506,112.883794 142.374162,114.123151 C143.318818,115.362507 143.791139,116.918744 143.791139,118.791907 C143.791139,119.026054 143.766917,119.413598 143.718474,119.954555 L135.107614,119.954555 C135.236798,121.14143 135.604159,122.033593 136.209707,122.631067 C136.815256,123.228542 137.541904,123.527275 138.389672,123.527275 C139.334328,123.527275 140.274932,123.180098 141.211514,122.485736 L142.725378,124.120709 C141.538502,125.259141 140.040802,125.832385 138.23223,125.840459 C136.641656,125.840459 135.305431,125.230883 134.223517,124.011711 C133.141604,122.792539 132.600656,121.141435 132.600656,119.058347 Z M135.156058,117.847257 L141.211514,117.847257 C141.146922,116.870305 140.866356,116.081085 140.369806,115.479573 C139.873256,114.878061 139.128442,114.57731 138.135343,114.57731 C137.295648,114.57731 136.617444,114.861913 136.100709,115.431129 C135.583974,116.000345 135.269094,116.805713 135.156058,117.847257 Z M147.085307,125.561908 L147.085307,108.824626 L149.64071,107.480315 L149.64071,125.561908 L147.085307,125.561908 Z" id="slavinraphael-copy" fill="#808082"></path>
        </g>
    </g>
</svg>