<?xml version="1.0" encoding="utf-8"?>
<!-- Generator: Adobe Illustrator 19.1.0, SVG Export Plug-In . SVG Version: 6.00 Build 0)  -->
<svg version="1.1" id="O_x3C__Logo" xmlns="http://www.w3.org/2000/svg" xmlns:xlink="http://www.w3.org/1999/xlink" x="0px"
	 y="0px" viewBox="0 0 309.6 41" style="enable-background:new 0 0 309.6 41;" xml:space="preserve">
<g>
	<g>
		<path d="M16.5,8.7c6.8,0,12.6,5,12.4,12c-0.2,6-4.2,12.1-11.6,12.1c-6.8,0-12.7-5.2-12-11.9C6,14.9,9.2,8.7,16.5,8.7 M16.5,5
			c-4.5,0-8.3,1.8-11,5.3c-2.6,3.4-3.6,7.5-3.9,10.3c-0.4,3.9,0.8,7.7,3.5,10.7c3,3.4,7.5,5.3,12.2,5.3c4.5,0,8.5-1.8,11.4-5.1
			c2.5-2.9,3.9-6.6,4-10.6c0.1-4.1-1.4-8-4.2-11C25.4,6.8,21,5,16.5,5L16.5,5z"/>
	</g>
	<g>
		<path d="M217.9,8.6c6.3,0,11.3,5.4,11.4,12.1c0,6.6-2.7,12.1-11.6,12.1c-6.8,0-13.6-5.2-12.8-11.9c0.7-6,7.6-11.8,12-12.3
			C217.2,8.7,217.6,8.6,217.9,8.6 M217.9,4.9c-0.5,0-0.9,0-1.4,0.1c-3.1,0.3-6.7,2.2-9.7,5.1c-3.3,3.1-5.3,6.9-5.7,10.5
			c-0.4,3.7,0.8,7.4,3.5,10.3c3.2,3.6,8.1,5.7,13.1,5.7c5.3,0,9.4-1.7,12.1-5c2.2-2.7,3.3-6.4,3.3-10.9C233,12,226.2,4.9,217.9,4.9
			L217.9,4.9z"/>
	</g>
	<g>
		<path d="M48.8,36.6c-0.1,0-0.3,0-0.4,0c-4.3-0.2-7.4-2.5-8.7-6.3c-1.8-5.4-1.2-21.8-1.1-23.6c0-1,0.9-1.3,1.9-1.3
			c1,0,1.8,0.4,1.8,1.4c-0.2,4.7-0.4,18.3,0.9,22.3c0.8,2.4,2.5,3.6,5.3,3.7c3.2,0.2,5.9-3,6.3-4.7c1-3.9,0.6-16.8,0.4-21.3
			c-0.1-1,0.7-1.4,1.8-1.5c1-0.1,1.9,0.2,2,1.3c0,0.7,0.8,17.1-0.5,22.4C57.7,32.2,53.8,36.6,48.8,36.6z"/>
	</g>
	<path d="M82.4,5.4H67c-1,0-1.4,0.8-1.4,1.8s0.4,1.8,1.4,1.8h4.8c0.3,0,1,0.2,1,0.9v24.8c0,1,0.8,1.5,1.9,1.5c1,0,1.9-0.4,1.9-1.5
		V9.7c0.1-0.6,0.6-0.8,1-0.8h4.8c1,0,1.4-0.8,1.4-1.8S83.3,5.4,82.4,5.4z"/>
	<path d="M107.1,32.6H95c-0.3,0-1-0.2-1-0.9v-7.7c0-0.8,0.7-0.9,1-0.9h0.1c0,0,0,0,0,0v0h10.3c1,0,1.4-0.8,1.4-1.8
		c0-1-0.4-1.8-1.4-1.8H95.2v0c0,0,0,0,0,0H95c-0.3,0-1-0.2-1-0.9V9.8c0-0.7,0.6-0.9,1-0.9H107c1,0,1.4-0.8,1.4-1.8S108,5.4,107,5.4
		H92c-1,0-1.8,0.8-1.8,1.8c0,0,0,0.1,0,0.1c0,0,0,0,0,0.1v26.9c0,0.1,0,0.2,0,0.3c0.1,0.9,0.8,1.6,1.8,1.6h15c1,0,1.4-0.8,1.4-1.8
		C108.5,33.4,108,32.6,107.1,32.6z"/>
	<path d="M138.4,18.1c0.7-3,0.1-6-1.6-8c-4.2-4.9-11.4-4.8-16.2-4.7c-0.5,0-1,0-1.5,0c0,0,0,0-0.1,0c0,0,0,0,0,0c0,0,0,0,0,0
		c-1,0-1.9,0.8-1.9,1.9l-0.1,27.4c0,1,0.8,1.5,1.9,1.5c0,0,0,0,0,0c1,0,1.9-0.4,1.9-1.5l0.1-24.4h0c0,0,0,0,0,0l0-0.2
		c0-0.3,0.2-1,1-1c4.2,0,9.4,0.2,12.2,3.4c1,1.1,1.3,2.8,0.8,4.7c-0.5,2.1-1.8,3.9-3.1,4.5c-0.9,0.4-4.4,0.8-7.2,1
		c-0.7,0.1-1.3,0.5-1.6,1.2c-0.3,0.7-0.1,1.4,0.4,2l9.3,9.6c0.4,0.4,0.9,0.6,1.3,0.6c0.5,0,0.9-0.2,1.3-0.5c0.7-0.7,0.8-1.9,0-2.6
		l-6.6-6.8c1.7-0.2,3.5-0.5,4.5-0.9C135.6,24.1,137.7,21.3,138.4,18.1z"/>
	<path d="M148.9,22L148.9,22c0,0-0.8-0.7,0-1.5l0,0L161,8.3c0.7-0.7,0.5-1.7-0.2-2.4c-0.7-0.7-1.7-0.9-2.4-0.2l-14.1,14.2
		c-0.4,0.4-0.6,0.9-0.5,1.4c0,0.5,0.2,1.1,0.6,1.5l14.1,13c0.9,0.7,2.1,0.1,2.4-0.3c0.7-0.8,0.8-1.7,0.1-2.4L148.9,22z"/>
	<g>
		<path d="M302.6,35.3C302.5,35.4,302.6,35.3,302.6,35.3L302.6,35.3z"/>
		<path d="M299.2,6.9v19.9c0,0-0.1,2-1.4,0.6l0,0L280.6,6.1c-0.5-0.6-1.4-0.8-2.2-0.5c-0.7,0.3-1.2,1-1.2,1.7v27.4c0,2,3.7,2,3.7,0
			V13.5c0,0,0.1-0.8,0.7-0.3l18,22.1c0.8,0.9,2.3,0.9,3-0.1c0.2-0.3,0.3-0.7,0.3-1.1V6.9C302.9,4.8,299.2,4.8,299.2,6.9z"/>
	</g>
	<g>
		<path d="M193.6,35.3C193.6,35.4,193.8,35,193.6,35.3C193.6,35.4,193.6,35.3,193.6,35.3z"/>
		<path d="M194,6.9c0-1-0.8-1.5-1.9-1.5c-1,0-1.9,0.5-1.9,1.5v19.9c0,0.3-0.2,1.9-1.4,0.5l0,0L171.6,6.1c-0.5-0.6-1.4-0.8-2.2-0.5
			c-0.7,0.3-1.2,1-1.2,1.7v27.4c0,1,0.8,1.5,1.9,1.5c1,0,1.9-0.4,1.9-1.5V13.5c0,0,0.1-0.8,0.7-0.3l18,22.1c0.8,0.9,2.3,0.9,3-0.1
			c0.2-0.3,0.3-0.7,0.3-1.1V6.9z"/>
	</g>
	<g>
		<path d="M269.8,5.4C269.8,5.4,269.8,5.4,269.8,5.4L269.8,5.4z"/>
		<path d="M269.8,5.4c0,0,0.1,0,0.3,0.1C270.9,5.6,269.9,5.4,269.8,5.4z"/>
		<path d="M270.1,5.4c-1-0.3-1.9,0-2.2,1L262.5,26h0c0,0-0.4,1.2-0.9,0l-5.8-19.3c-0.3-0.8-1-1.3-1.8-1.3c-0.8,0-1.5,0.5-1.8,1.3
			L246.4,26l0,0c-0.5,1.2-0.9,0-0.9,0l0,0l-5.4-19.6c-0.3-1-1.2-1.3-2.2-1c-1,0.3-1.7,1-1.4,2l7.5,27.3c0.3,1.1,1.6,1.7,2.6,1.2
			c0.4-0.2,0.8-0.6,0.9-1.1l5.7-18.9l0,0c0,0,0.6-1.6,1.3,0l0,0l5.7,18.9c0.1,0.5,0.5,0.9,0.9,1.1c1,0.5,2.3,0,2.6-1.2l7.5-27.3
			C271.8,6.4,271.1,5.7,270.1,5.4z"/>
	</g>
</g>
</svg>
